# Blender 4.5.3 LTS
# www.blender.org
mtllib yellow_stair_rail_left.mtl
o cube
v 0.093750 0.059375 0.968750
v 0.093750 0.059375 0.906250
v 0.093750 -0.500000 0.968750
v 0.093750 -0.500000 0.906250
v 0.031250 0.059375 0.906250
v 0.031250 0.059375 0.968750
v 0.031250 -0.500000 0.906250
v 0.031250 -0.500000 0.968750
vn -0.0000 -0.0000 -1.0000
vn 1.0000 -0.0000 -0.0000
vn -0.0000 -0.0000 1.0000
vn -1.0000 -0.0000 -0.0000
vn -0.0000 -1.0000 -0.0000
vt 0.281250 0.062500
vt 0.281250 0.093750
vt 0.000000 0.093750
vt 0.000000 0.062500
vt 0.312500 0.062500
vt 0.312500 0.093750
s 1
usemtl m_e1255e97-9f24-c43c-6167-5ef7f8e1d01a
f 4/1/1 7/2/1 5/3/1 2/4/1
f 3/1/2 4/2/2 2/3/2 1/4/2
f 8/1/3 3/2/3 1/3/3 6/4/3
f 7/1/4 8/2/4 6/3/4 5/4/4
f 7/5/5 4/1/5 3/2/5 8/6/5
o cube.001
v 0.093750 0.906250 0.093750
v 0.093750 0.906250 0.031250
v 0.093750 0.000000 0.093750
v 0.093750 0.000000 0.031250
v 0.031250 0.906250 0.031250
v 0.031250 0.906250 0.093750
v 0.031250 0.000000 0.031250
v 0.031250 0.000000 0.093750
vn -0.0000 -0.0000 -1.0000
vn 1.0000 -0.0000 -0.0000
vn -0.0000 -0.0000 1.0000
vn -1.0000 -0.0000 -0.0000
vn -0.0000 -1.0000 -0.0000
vt 0.468750 0.031250
vt 0.468750 0.062500
vt 0.000000 0.062500
vt 0.000000 0.031250
vt 0.312500 0.062500
vt 0.281250 0.062500
vt 0.281250 0.093750
vt 0.312500 0.093750
s 1
usemtl m_e1255e97-9f24-c43c-6167-5ef7f8e1d01a
f 12/7/6 15/8/6 13/9/6 10/10/6
f 11/7/7 12/8/7 10/9/7 9/10/7
f 16/7/8 11/8/8 9/9/8 14/10/8
f 15/7/9 16/8/9 14/9/9 13/10/9
f 15/11/10 12/12/10 11/13/10 16/14/10
o cube.002
v 0.095000 0.058920 0.968736
v 0.095000 0.952526 0.075130
v 0.095000 0.012958 0.922774
v 0.095000 0.906564 0.029168
v 0.030000 0.952526 0.075130
v 0.030000 0.058920 0.968736
v 0.030000 0.906564 0.029168
v 0.030000 0.012958 0.922774
vn -0.0000 0.7071 -0.7071
vn 1.0000 -0.0000 -0.0000
vn -0.0000 -0.7071 0.7071
vn -1.0000 -0.0000 -0.0000
vn -0.0000 0.7071 0.7071
vn -0.0000 -0.7071 -0.7071
vt 0.312500 0.062500
vt 0.343750 0.062500
vt 0.343750 0.093750
vt 0.312500 0.093750
vt 0.000000 0.000000
vt 0.625000 0.000000
vt 0.625000 0.031250
vt 0.000000 0.031250
s 1
usemtl m_e1255e97-9f24-c43c-6167-5ef7f8e1d01a
f 20/15/11 23/16/11 21/17/11 18/18/11
f 19/19/12 20/20/12 18/21/12 17/22/12
f 24/15/13 19/16/13 17/17/13 22/18/13
f 23/19/14 24/20/14 22/21/14 21/22/14
f 22/21/15 17/20/15 18/19/15 21/22/15
f 23/22/16 20/19/16 19/20/16 24/21/16
o cube.003
v 0.095000 -0.378580 0.968736
v 0.095000 0.510607 0.079549
v 0.095000 -0.424542 0.922774
v 0.095000 0.464645 0.033588
v 0.030000 0.510607 0.079549
v 0.030000 -0.378580 0.968736
v 0.030000 0.464645 0.033588
v 0.030000 -0.424542 0.922774
vn -0.0000 0.7071 -0.7071
vn 1.0000 -0.0000 -0.0000
vn -0.0000 -0.7071 0.7071
vn -1.0000 -0.0000 -0.0000
vn -0.0000 0.7071 0.7071
vn -0.0000 -0.7071 -0.7071
vt 0.312500 0.062500
vt 0.343750 0.062500
vt 0.343750 0.093750
vt 0.312500 0.093750
vt 0.000000 0.000000
vt 0.625000 0.000000
vt 0.625000 0.031250
vt 0.000000 0.031250
s 1
usemtl m_e1255e97-9f24-c43c-6167-5ef7f8e1d01a
f 28/23/17 31/24/17 29/25/17 26/26/17
f 27/27/18 28/28/18 26/29/18 25/30/18
f 32/23/19 27/24/19 25/25/19 30/26/19
f 31/27/20 32/28/20 30/29/20 29/30/20
f 30/29/21 25/28/21 26/27/21 29/30/21
f 31/30/22 28/27/22 27/28/22 32/29/22
