# Blender 4.5.3 LTS
# www.blender.org
mtllib yellow_stair_rail_right.mtl
o cube
v 1.000000 0.046875 1.000000
v 1.000000 0.046875 0.937500
v 1.000000 -0.500000 1.000000
v 1.000000 -0.500000 0.937500
v 0.937500 0.046875 0.937500
v 0.937500 0.046875 1.000000
v 0.937500 -0.500000 0.937500
v 0.937500 -0.500000 1.000000
vn -0.0000 -0.0000 -1.0000
vn 1.0000 -0.0000 -0.0000
vn -0.0000 -0.0000 1.0000
vn -1.0000 -0.0000 -0.0000
vn -0.0000 -1.0000 -0.0000
vt 0.281250 0.906250
vt 0.281250 0.937500
vt 0.000000 0.937500
vt 0.000000 0.906250
vt 0.312500 0.906250
vt 0.312500 0.937500
s 1
usemtl texture
f 4/1/1 7/2/1 5/3/1 2/4/1
f 3/1/2 4/2/2 2/3/2 1/4/2
f 8/1/3 3/2/3 1/3/3 6/4/3
f 7/1/4 8/2/4 6/3/4 5/4/4
f 7/5/5 4/1/5 3/2/5 8/6/5
o cube.001
v 1.000000 0.968750 0.062500
v 1.000000 0.968750 -0.000000
v 1.000000 0.000000 0.062500
v 1.000000 0.000000 0.000000
v 0.937500 0.968750 -0.000000
v 0.937500 0.968750 0.062500
v 0.937500 0.000000 0.000000
v 0.937500 0.000000 0.062500
vn -0.0000 -0.0000 -1.0000
vn 1.0000 -0.0000 -0.0000
vn -0.0000 -0.0000 1.0000
vn -1.0000 -0.0000 -0.0000
vn -0.0000 -1.0000 -0.0000
vt 0.500000 0.937500
vt 0.500000 0.968750
vt 0.000000 0.968750
vt 0.000000 0.937500
vt 0.312500 0.906250
vt 0.281250 0.906250
vt 0.281250 0.937500
vt 0.312500 0.937500
s 1
usemtl texture
f 12/7/6 15/8/6 13/9/6 10/10/6
f 11/7/7 12/8/7 10/9/7 9/10/7
f 16/7/8 11/8/8 9/9/8 14/10/8
f 15/7/9 16/8/9 14/9/9 13/10/9
f 15/11/10 12/12/10 11/13/10 16/14/10
o cube.002
v 1.000625 0.045092 0.999986
v 1.000625 1.009409 0.035669
v 1.000625 0.000014 0.954908
v 1.000625 0.964331 -0.009409
v 0.936875 1.009409 0.035669
v 0.936875 0.045092 0.999986
v 0.936875 0.964331 -0.009409
v 0.936875 0.000014 0.954908
vn -0.0000 0.7071 -0.7071
vn 1.0000 -0.0000 -0.0000
vn -0.0000 -0.7071 0.7071
vn -1.0000 -0.0000 -0.0000
vn -0.0000 0.7071 0.7071
vn -0.0000 -0.7071 -0.7071
vt 0.000000 0.968750
vt 0.031250 0.968750
vt 0.031250 1.000000
vt 0.000000 1.000000
vt 0.000000 0.875000
vt 0.681250 0.875000
vt 0.681250 0.906250
vt 0.000000 0.906250
s 1
usemtl texture
f 20/15/11 23/16/11 21/17/11 18/18/11
f 19/19/12 20/20/12 18/21/12 17/22/12
f 24/15/13 19/16/13 17/17/13 22/18/13
f 23/19/14 24/20/14 22/21/14 21/22/14
f 22/20/15 17/21/15 18/22/15 21/19/15
f 23/20/16 20/21/16 19/22/16 24/19/16
o cube.003
v 1.000625 -0.374730 0.982309
v 1.000625 0.554231 0.053347
v 1.000625 -0.419809 0.937231
v 1.000625 0.509153 0.008269
v 0.936875 0.554231 0.053347
v 0.936875 -0.374730 0.982309
v 0.936875 0.509153 0.008269
v 0.936875 -0.419809 0.937231
vn -0.0000 0.7071 -0.7071
vn 1.0000 -0.0000 -0.0000
vn -0.0000 -0.7071 0.7071
vn -1.0000 -0.0000 -0.0000
vn -0.0000 0.7071 0.7071
vn -0.0000 -0.7071 -0.7071
vt 0.000000 0.968750
vt 0.031250 0.968750
vt 0.031250 1.000000
vt 0.000000 1.000000
vt 0.656250 0.968750
vt 0.656250 1.000000
s 1
usemtl texture
f 28/23/17 31/24/17 29/25/17 26/26/17
f 27/23/18 28/27/18 26/28/18 25/26/18
f 32/23/19 27/24/19 25/25/19 30/26/19
f 31/23/20 32/27/20 30/28/20 29/26/20
f 30/27/21 25/28/21 26/26/21 29/23/21
f 31/27/22 28/28/22 27/26/22 32/23/22
