# Blender 4.5.2 LTS
# www.blender.org
mtllib handrail.mtl
o handrail
v 0.118750 0.181250 0.806250
v 0.118750 0.181250 0.693750
v 0.118750 -0.493750 0.806250
v 0.118750 -0.493750 0.693750
v 0.006250 0.181250 0.806250
v 0.006250 0.181250 0.693750
v 0.006250 -0.493750 0.806250
v 0.006250 -0.493750 0.693750
v 0.125000 -0.028522 1.023160
v 0.125000 0.992364 0.002275
v 0.125000 -0.116910 0.934772
v 0.125000 0.903975 -0.086114
v 0.000000 -0.028522 1.023160
v 0.000000 0.992364 0.002275
v 0.000000 -0.116910 0.934772
v 0.000000 0.903975 -0.086114
v 0.118750 0.681250 0.306250
v 0.118750 0.681250 0.193750
v 0.118750 0.006250 0.306250
v 0.118750 0.006250 0.193750
v 0.006250 0.681250 0.306250
v 0.006250 0.681250 0.193750
v 0.006250 0.006250 0.306250
v 0.006250 0.006250 0.193750
vn 1.0000 -0.0000 -0.0000
vn -1.0000 -0.0000 -0.0000
vn -0.0000 -1.0000 -0.0000
vn -0.0000 -0.0000 1.0000
vn -0.0000 -0.0000 -1.0000
vn -0.0000 0.7071 0.7071
vn -0.0000 -0.7071 -0.7071
vn -0.0000 -0.7071 0.7071
vn -0.0000 0.7071 -0.7071
vt 0.125000 0.750000
vt 0.062500 0.406250
vt 0.125000 0.406250
vt 0.250000 0.750000
vt 0.187500 0.406250
vt 0.250000 0.406250
vt 0.312500 0.687500
vt 0.250000 0.687500
vt 0.187500 0.750000
vt 0.062500 0.750000
vt 0.000000 0.406250
vt 0.718750 1.000000
vt 0.000000 0.937500
vt 0.718750 0.937500
vt 0.718750 0.875000
vt 0.000000 0.875000
vt 0.000000 0.812500
vt 0.718750 0.750000
vt 0.000000 0.750000
vt 0.312500 0.625000
vt 0.250000 0.562500
vt 0.312500 0.562500
vt 0.250000 0.625000
vt 0.312500 0.750000
vt 0.000000 1.000000
vt 0.718750 0.812500
s 1
usemtl m_05170c9d-f69e-35ac-0487-4a687b603222
f 2/1/1 3/2/1 4/3/1
f 5/4/2 8/5/2 7/6/2
f 3/4/3 8/7/3 4/8/3
f 1/9/4 7/3/4 3/5/4
f 6/10/5 4/11/5 8/2/5
f 10/12/1 11/13/1 12/14/1
f 15/15/2 14/13/2 16/16/2
f 10/17/6 13/15/6 9/16/6
f 11/17/7 16/18/7 12/19/7
f 9/20/8 15/21/8 11/22/8
f 14/7/9 12/23/9 16/20/9
f 18/1/1 19/2/1 20/3/1
f 21/4/2 24/5/2 23/6/2
f 19/4/3 24/7/3 20/8/3
f 17/9/4 23/3/4 19/5/4
f 22/10/5 20/11/5 24/2/5
f 2/1/1 1/10/1 3/2/1
f 5/4/2 6/9/2 8/5/2
f 3/4/3 7/24/3 8/7/3
f 1/9/4 5/1/4 7/3/4
f 6/10/5 2/19/5 4/11/5
f 10/12/1 9/25/1 11/13/1
f 15/15/2 13/14/2 14/13/2
f 10/17/6 14/26/6 13/15/6
f 11/17/7 15/26/7 16/18/7
f 9/20/8 13/23/8 15/21/8
f 14/7/9 10/8/9 12/23/9
f 18/1/1 17/10/1 19/2/1
f 21/4/2 22/9/2 24/5/2
f 19/4/3 23/24/3 24/7/3
f 17/9/4 21/1/4 23/3/4
f 22/10/5 18/19/5 20/11/5
